<svg xmlns="http://www.w3.org/2000/svg" version="1.1" xmlns:xlink="http://www.w3.org/1999/xlink" xmlns:svgjs="http://svgjs.com/svgjs" width="1440" height="560" preserveAspectRatio="none" viewBox="0 0 1440 560"><g mask="url(&quot;#SvgjsMask1000&quot;)" fill="none"><rect width="1440" height="560" x="0" y="0" fill="#0e2a47"></rect><path d="M 0,95 C 57.6,120.6 172.8,227 288,223 C 403.2,219 460.8,68.6 576,75 C 691.2,81.4 748.8,260.2 864,255 C 979.2,249.8 1036.8,67 1152,49 C 1267.2,31 1382.4,141.8 1440,165L1440 560L0 560z" fill="#184a7e"></path><path d="M 0,418 C 96,437.8 288,524.2 480,517 C 672,509.8 768,374.6 960,382 C 1152,389.4 1344,519.6 1440,554L1440 560L0 560z" fill="#2264ab"></path></g><defs><mask id="SvgjsMask1000"><rect width="1440" height="560" fill="#ffffff"></rect></mask></defs></svg>